# xmcd
#
# Track frame offsets:
#	150
#	12972
#	25922
#	38177
#	54521
#	68710
#	82195
#	96774
#	110609
#	127638
#	140973
#	153612
#
# Disc length: 2255 seconds
#
# Revision: 1
# Processed by: cddbd v1.5.2PL0 Copyright (c) Steve Scherf et al.
# Submitted via: EZCDAudioConverter 7.0.7.1
#
DISCID=a008cd0c
DTITLE=Chris Janson - Everybody
DYEAR=2017
DGENRE=Country
TTITLE0=Chris Janson - Who's Your Farmer
TTITLE1=Everybody
TTITLE2=Name On It
TTITLE3=Eyes For Nobody
TTITLE4=Fix A Drink
TTITLE5=Out There
TTITLE6=Little Bit Of Both
TTITLE7=Our World
TTITLE8=Bein' A Dad
TTITLE9=When You Like Me
TTITLE10=Redneck Life
TTITLE11=Drunk Girl
EXTD=
EXTT0=
EXTT1=
EXTT2=
EXTT3=
EXTT4=
EXTT5=
EXTT6=
EXTT7=
EXTT8=
EXTT9=
EXTT10=
EXTT11=
PLAYORDER=
